<?xml version="1.0" encoding="utf-8"?>
<!-- Generator: Adobe Illustrator 24.0.1, SVG Export Plug-In . SVG Version: 6.00 Build 0)  -->
<svg version="1.1" id="Layer_3" xmlns="http://www.w3.org/2000/svg" xmlns:xlink="http://www.w3.org/1999/xlink" x="0px" y="0px"
	 viewBox="0 0 541.7 72.4" style="enable-background:new 0 0 541.7 72.4;" xml:space="preserve">
<style type="text/css">
	.st0{fill:#73797C;stroke:#73797C;stroke-width:0.7548;stroke-miterlimit:10;}
	.st1{fill:#8AC2EB;stroke:#8AC2EB;stroke-width:0.3774;stroke-miterlimit:10;}
	.st2{fill:#8AC2EB;}
	.st3{fill:none;}
</style>
<g>
	<path class="st0" d="M80.3,15.1c-7.3,0-11.6,3-11.6,8.8c0,5.9,4.2,8.8,11.6,8.8c6.1,0,8.9-1.6,10.7-3.3l2.1,2.5
		c-2.8,2.5-6.8,3.7-12.7,3.7c-8.9,0-15.5-3.7-15.5-11.7c0-7.8,6.7-11.8,15.5-11.8c5.6,0,9.5,1,12.4,3.4L90.6,18
		C88.5,16.2,85.9,15.1,80.3,15.1z"/>
	<path class="st0" d="M107.3,35.6c-7.1,0-12.1-3.3-12.1-8.6c0-5.1,5-8.6,12.1-8.6c7.1,0,12,3.4,12,8.5
		C119.3,32.2,114.5,35.6,107.3,35.6z M107.2,32.7c5.5,0,8.4-2,8.4-5.8c0-3.7-2.9-5.8-8.4-5.8c-5.5,0-8.4,2.1-8.4,5.8
		C98.8,30.7,101.7,32.7,107.2,32.7z"/>
	<path class="st0" d="M123.4,12.6h3.5v22.6h-3.5V12.6z"/>
	<path class="st0" d="M132.5,12.6h3.5v22.6h-3.5V12.6z"/>
	<path class="st0" d="M143.8,28.3c0.6,3,3.3,4.5,8.2,4.5c4.1,0,6.5-1.1,7.9-2.1l1.8,2.3c-2.4,1.8-5.6,2.6-9.7,2.6
		c-7.6,0-12-3.1-12-8.6c0-5.4,4.5-8.6,11.3-8.6c6.2,0,11.1,2,11.1,8.7c0,0.5-0.1,1.2-0.1,1.2L143.8,28.3L143.8,28.3z M143.8,25.6
		h15.1c-0.5-3.5-3.5-4.4-7.5-4.4C146.8,21.2,144.4,22.6,143.8,25.6z"/>
	<path class="st0" d="M175.8,30.1c-2.6,0-4.8-0.4-6.4-1c-0.9,0.4-1.2,0.8-1.2,1.5c0,1.2,1.3,1.6,5,1.6h7.8c5.1,0,7.7,0.9,7.7,4.5
		c0,4.1-3.8,5.8-13.1,5.8c-8,0-11.7-1.6-11.7-4.8c0-1.7,1.2-2.9,3-3.6c-1.1-0.5-1.7-1.3-1.7-2.6c0-1.6,1.2-2.7,2.5-3.4
		c-1.3-1-2-2.3-2-3.8c0-3.4,3.3-5.9,10.2-5.9c2.4,0,4.1,0.2,5.6,0.6l7.5-0.9v2.7l-4.1,0.3c1,0.7,1.6,1.8,1.6,3
		C186.3,27.9,182.7,30.1,175.8,30.1z M168.9,34.9c-1.1,0.5-1.8,1.2-1.8,2.1c0,1.8,2.2,2.7,8.4,2.7c7.4,0,9.6-1.1,9.6-2.8
		c0-1.3-0.7-1.7-4.4-1.7h-8.3C171,35.1,170,35,168.9,34.9z M175.7,27.5c4.6,0,7.1-1.2,7.1-3.2c0-2-2.5-3.2-7.1-3.2
		c-4.6,0-6.6,1.2-6.6,3.2C169.1,26.3,171.1,27.5,175.7,27.5z"/>
	<path class="st0" d="M193.3,28.3c0.6,3,3.3,4.5,8.2,4.5c4.1,0,6.5-1.1,7.9-2.1l1.8,2.3c-2.4,1.8-5.6,2.6-9.7,2.6
		c-7.6,0-12-3.1-12-8.6c0-5.4,4.5-8.6,11.3-8.6c6.2,0,11.1,2,11.1,8.7c0,0.5-0.1,1.2-0.1,1.2L193.3,28.3L193.3,28.3z M193.3,25.6
		h15.1c-0.6-3.5-3.5-4.4-7.5-4.4C196.3,21.2,193.9,22.6,193.3,25.6z"/>
	<path class="st0" d="M236.7,35.6c-7.1,0-12.1-3.3-12.1-8.6c0-5.1,5-8.6,12.1-8.6c7.1,0,12,3.4,12,8.5
		C248.8,32.2,243.9,35.6,236.7,35.6z M236.7,32.7c5.5,0,8.4-2,8.4-5.8c0-3.7-2.9-5.8-8.4-5.8c-5.5,0-8.4,2.1-8.4,5.8
		C228.2,30.7,231.2,32.7,236.7,32.7z"/>
	<path class="st0" d="M265.9,15.4c-0.9-0.1-1.6-0.2-3.2-0.2c-3.7,0-4.7,1.5-4.8,3.7h7.6v2.9h-7.6v13.4h-3.5V21.8h-4v-2.9h4
		c0.1-3.9,2.5-6.7,7.9-6.7c1.7,0,2.5,0.1,3.6,0.3L265.9,15.4L265.9,15.4z"/>
</g>
<g>
	<path class="st0" d="M291.2,25.2l-7.1-0.3c-5.9-0.3-9.2-1.8-9.2-5.9c0-4.5,4.7-6.9,12.4-6.9c6.7,0,10.2,1.1,13.1,2.6l-1.5,2.8
		c-2.5-1.3-5.5-2.5-11.6-2.5c-5.9,0-8.7,1.3-8.7,3.6c0,2.1,2,2.8,6.1,2.9l7.1,0.3c6,0.3,9.9,1.5,9.9,6.2c0,5.3-5.9,7.4-13.3,7.4
		c-7,0-11.2-1.3-14.3-3.3l1.9-2.7c2.1,1.4,6,3.1,12.4,3.1c6.7,0,9.5-1.7,9.5-4.2C297.9,26,295.8,25.4,291.2,25.2z"/>
	<path class="st0" d="M314.6,35.6c-5,0-7-3-7-6.9v-6.9h-4.2v-2.9h4.2V14h3.5v4.9h7.2v2.9h-7.2v6.9c0,2.4,0.6,3.9,3.9,3.9
		c2.2,0,2.7-0.2,3.6-0.3v3C317.5,35.4,316.9,35.6,314.6,35.6z"/>
	<path class="st0" d="M333,18.4c5.9,0,9.4,1.7,9.4,7.1v4.7c0,2.6,0.2,4.1,0.8,4.8v0.2h-3.5c-0.2-0.4-0.4-1.1-0.5-2
		c-1.7,1-4.8,2.4-10,2.4c-4.2,0-8.1-0.9-8.1-5c0-4.9,6.7-5.2,17.8-5.7c-0.2-2.8-2-3.5-6.5-3.5c-3.1,0-6.1,0.5-9,1.1l-0.5-2.8
		C325.3,19.1,328.5,18.4,333,18.4z M338.8,27.3c-11.6,0.6-14.2,1-14.2,3.3c0,1.7,1.8,2.2,4.6,2.2c4.9,0,7.8-1.2,9.6-2.1L338.8,27.3
		L338.8,27.3z"/>
	<path class="st0" d="M356.2,35.6c-5,0-7-3-7-6.9v-6.9H345v-2.9h4.2V14h3.5v4.9h7.2v2.9h-7.2v6.9c0,2.4,0.6,3.9,3.9,3.9
		c2.2,0,2.7-0.2,3.6-0.3v3C359.1,35.4,358.5,35.6,356.2,35.6z"/>
	<path class="st0" d="M366.1,28.3c0.6,3,3.3,4.5,8.2,4.5c4.1,0,6.5-1.1,7.9-2.1l1.8,2.3c-2.4,1.8-5.6,2.6-9.7,2.6
		c-7.6,0-12-3.1-12-8.6c0-5.4,4.5-8.6,11.3-8.6c6.2,0,11.1,2,11.1,8.7c0,0.5-0.1,1.2-0.1,1.2L366.1,28.3L366.1,28.3z M366.1,25.6
		h15.1c-0.5-3.5-3.5-4.4-7.5-4.4C369.1,21.2,366.7,22.6,366.1,25.6z"/>
	<path class="st0" d="M388.6,18.9h3.5v2.4c2.5-1.3,6-2.8,10.7-2.8c4.3,0,7.1,2,7.1,7.2v9.5h-3.5v-9.6c0-3.2-1.5-4.2-4.5-4.2
		c-4.1,0-6.7,0.9-9.7,2.2v11.5h-3.5L388.6,18.9L388.6,18.9z"/>
	<path class="st0" d="M425.9,12.5h3.7v22.6h-3.7V12.5z"/>
	<path class="st0" d="M444.5,35.6c-5.1,0-8.4-0.9-10.4-2.2l1.4-2.6c1.4,0.8,4.5,2,9.1,2c4.9,0,7.5-0.9,7.5-2.6
		c0-1.2-1.2-1.7-4.2-1.8l-5.7-0.2c-4.5-0.1-7.4-1.1-7.4-4.7c0-3.5,3.7-5.1,9.9-5.1c4.1,0,7.1,0.5,9.8,1.9l-1.3,2.6
		c-2.1-0.9-4.4-1.6-8.5-1.6c-4.8,0-6.5,0.7-6.5,2.1c0,1.2,0.8,1.7,4.1,1.8l5.8,0.2c4.7,0.1,7.5,1.2,7.5,4.6
		C455.4,33.7,451.6,35.6,444.5,35.6z"/>
	<path class="st0" d="M459.3,12.6h3.5v22.6h-3.5V12.6z"/>
	<path class="st0" d="M478.7,18.4c5.9,0,9.3,1.7,9.3,7.1v4.7c0,2.6,0.3,4.1,0.8,4.8v0.2h-3.5c-0.2-0.4-0.4-1.1-0.5-2
		c-1.7,1-4.8,2.4-10,2.4c-4.2,0-8.1-0.9-8.1-5c0-4.9,6.7-5.2,17.8-5.7c-0.2-2.8-2-3.5-6.5-3.5c-3.1,0-6.1,0.5-9,1.1l-0.5-2.8
		C471,19.1,474.2,18.4,478.7,18.4z M484.5,27.3c-11.6,0.6-14.2,1-14.2,3.3c0,1.7,1.8,2.2,4.6,2.2c4.9,0,7.8-1.2,9.6-2.1V27.3z"/>
	<path class="st0" d="M493.2,18.9h3.4v2.4c2.5-1.3,6-2.8,10.7-2.8c4.3,0,7.1,2,7.1,7.2v9.5h-3.5v-9.6c0-3.2-1.5-4.2-4.5-4.2
		c-4.1,0-6.7,0.9-9.7,2.2v11.5h-3.5L493.2,18.9L493.2,18.9z"/>
	<path class="st0" d="M528.3,35.6c-5.9,0-10-3-10-8.5c0-5.6,4.6-8.7,10.5-8.7c4.6,0,6.6,1,8.7,2.1v-8h3.5v22.6h-3.4v-2
		C535,34.6,532.4,35.6,528.3,35.6z M537.4,23c-2.6-1-4.6-1.8-8.3-1.8c-4.4,0-7.2,1.9-7.2,5.9c0,4,2.8,5.8,6.9,5.8
		c3.5,0,5.7-0.8,8.6-2.1V23z"/>
</g>
<g>
	<path class="st1" d="M73.7,50.1h-9.3v-2.1h21v2.1h-9.3v17.3h-2.3C73.7,67.5,73.7,50.1,73.7,50.1z"/>
	<path class="st1" d="M88,48.1h2.2v7.5c1.5-1.3,3.4-2.5,5.9-2.5c1.7,0,5.8,0.4,5.8,5.2v9.2h-2.2v-8.8c0.1-3.3-2.3-3.8-3.9-3.8
		c-2.4,0-4.3,1.5-5.6,2.8v9.8H88V48.1z"/>
	<path class="st1" d="M120,64.6c-1.4,1.5-2.8,3.3-7.6,3.3c-4.7,0-7.9-3.2-7.9-7.5c0-4.4,3.3-7.4,7.6-7.4c4.4,0,8.3,2.3,8.2,7.9
		h-13.7c0.2,2.6,2.3,5.1,5.9,5.1c3.6,0,4.8-1.6,5.7-2.7L120,64.6z M118.1,59.1c-0.4-2.3-2.4-4.2-5.7-4.2c-3.2,0-5,1.6-5.6,4.2H118.1
		z"/>
	<path class="st1" d="M153.8,62.3c-2.1,4-5.7,5.6-10.4,5.6c-7.5,0-11.1-4.5-11.1-10.1c0-6.7,4.5-10.2,11-10.2
		c4.2,0,8.4,1.6,10.1,5.6l-2,0.9c-1.4-3.2-4.4-4.5-8.1-4.5c-5.5,0-8.6,3-8.6,8.5c0,4.5,3,7.8,8.9,7.8c3.8,0,6.5-1.6,8.1-4.6
		L153.8,62.3z"/>
	<path class="st1" d="M159,48.1v2.5h-2.5v-2.5H159z M156.7,53.5h2.2v14h-2.2V53.5z"/>
	<path class="st1" d="M171.7,55.4h-5.5v8.5c0,1.5,0.7,2.3,2.9,2.3c1,0,1.9-0.2,3.1-0.4v1.9c-1.5,0.2-2.6,0.4-3.5,0.4
		c-4.6,0-4.6-2.8-4.6-3.9v-8.7h-3v-1.9h3v-4.6h2.2v4.6h5.5V55.4z"/>
	<path class="st1" d="M173.9,70c0.7,0.3,1.8,0.4,2.5,0.4c1.6,0,2.7-0.8,4-3.5l-7.2-13.4h2.3l6,11.3l5.7-11.3h2.3l-8.1,15.8
		c-0.9,1.7-2.4,3.1-4.9,3.1c-0.9,0-1.8-0.2-2.7-0.4L173.9,70L173.9,70z"/>
	<path class="st1" d="M222.5,59.5c0,7-5.5,8.5-10,8.5s-10-1.4-10-8.5V48.1h2.3v11.4c0,4.5,2.9,6.5,7.6,6.5s7.6-2,7.6-6.5V48.1h2.3
		L222.5,59.5L222.5,59.5z"/>
	<path class="st1" d="M227.1,53.5h2.2v2c1.5-1.3,3.4-2.5,5.9-2.5c1.7,0,5.8,0.4,5.8,5.2v9.2h-2.2v-8.8c0.1-3.3-2.3-3.8-3.9-3.8
		c-2.4,0-4.3,1.5-5.6,2.8v9.8h-2.2V53.5z"/>
	<path class="st1" d="M247,48.1v2.5h-2.5v-2.5H247z M244.7,53.5h2.2v14h-2.2V53.5z"/>
	<path class="st1" d="M249.4,53.5h2.3l5.9,11.6l5.9-11.6h2.3l-7.1,14h-2.2L249.4,53.5z"/>
	<path class="st1" d="M282.8,64.6c-1.4,1.5-2.8,3.3-7.6,3.3c-4.7,0-7.9-3.2-7.9-7.5c0-4.4,3.3-7.4,7.6-7.4c4.5,0,8.3,2.3,8.2,7.9
		h-13.7c0.2,2.6,2.3,5.1,5.9,5.1c3.6,0,4.8-1.6,5.7-2.7L282.8,64.6z M280.9,59.1c-0.4-2.3-2.4-4.2-5.7-4.2c-3.2,0-5,1.6-5.6,4.2
		H280.9z"/>
	<path class="st1" d="M286.3,53.5h2.2v2.9c1.2-1.4,3-3.3,5.8-3.3c0.5,0,0.9,0,1.3,0.1v2.2c-0.3,0-0.8-0.2-1.7-0.2
		c-3.1,0-5.3,3.5-5.4,4v8.4h-2.2L286.3,53.5L286.3,53.5z"/>
	<path class="st1" d="M298.4,63.1c1.4,1.7,3.4,2.9,6.3,2.9c2.3,0,4.4-0.7,4.4-2.4c0-4-11.6-0.6-11.6-6.4c0-3.2,3.2-4.2,6.2-4.2
		c4.7,0,6.4,2,7.1,3l-1.5,1.3c-1.1-1.5-2.9-2.5-5.7-2.5c-2.6,0-4,0.8-4,2.3c0,3.6,11.6,0.4,11.6,6.3c0,3.2-3.1,4.4-6.7,4.4
		c-3.1,0-5.6-0.9-7.7-3.3L298.4,63.1z"/>
	<path class="st1" d="M316.6,48.1v2.5h-2.5v-2.5H316.6z M314.3,53.5h2.2v14h-2.2V53.5z"/>
	<path class="st1" d="M329.3,55.4h-5.5v8.5c0,1.5,0.7,2.3,2.9,2.3c1,0,1.9-0.2,3.1-0.4v1.9c-1.5,0.2-2.6,0.4-3.5,0.4
		c-4.5,0-4.5-2.8-4.5-3.9v-8.7h-3v-1.9h3v-4.6h2.1v4.6h5.5V55.4z"/>
	<path class="st1" d="M331.5,70c0.7,0.3,1.8,0.4,2.5,0.4c1.7,0,2.7-0.8,4-3.5l-7.2-13.4h2.4l6,11.3l5.7-11.3h2.3L339,69.3
		c-0.9,1.7-2.4,3.1-4.9,3.1c-0.9,0-1.8-0.2-2.7-0.4V70z"/>
	<path class="st1" d="M358.4,60.2c0-4,3.1-7.2,8-7.2c4.9,0,8,3.2,8,7.2c0,4.9-3.3,7.7-8,7.7C361.7,67.9,358.4,65.2,358.4,60.2z
		 M372.3,60.5c0-2.5-1.6-5.6-5.9-5.6s-5.9,3-5.9,5.6c0,3.3,2.2,5.6,5.9,5.6C370.1,66.1,372.3,63.9,372.3,60.5z"/>
	<path class="st1" d="M379.4,55.7h-3.5v-1.9h3.5v-1.1c0-2.3,0.7-5.2,5-5.2c2.2,0,3.1,0.2,3.6,0.4v1.9c-1-0.2-1.9-0.5-3-0.5
		c-3,0-3.4,1.4-3.4,3.5v0.9h5.7v1.9h-5.7v11.8h-2.1L379.4,55.7L379.4,55.7z"/>
	<path class="st1" d="M400.7,48.1h3.3l14.4,16v-16h2.3v19.4h-2.3L403,50.1v17.3h-2.2L400.7,48.1L400.7,48.1z"/>
	<path class="st1" d="M439.6,64.6c-1.4,1.5-2.8,3.3-7.6,3.3c-4.7,0-7.9-3.2-7.9-7.5c0-4.4,3.3-7.4,7.6-7.4c4.4,0,8.3,2.3,8.2,7.9
		h-13.7c0.2,2.6,2.3,5.1,5.9,5.1c3.6,0,4.8-1.6,5.7-2.7L439.6,64.6z M437.7,59.1c-0.4-2.3-2.4-4.2-5.7-4.2c-3.2,0-5,1.6-5.6,4.2
		H437.7z"/>
	<path class="st1" d="M441.5,53.5h2.2l4.6,11.4l4.3-11.4h2l4.3,11.4l4.6-11.4h2.3l-5.9,14h-2l-4.2-11.3l-4.3,11.3h-2L441.5,53.5z"/>
	<path class="st1" d="M485.1,59.6l-10-11.6h3.1l8.1,9.5l8.1-9.5h3.1l-10,11.6v7.9h-2.3L485.1,59.6L485.1,59.6z"/>
	<path class="st1" d="M494.9,60.2c0-4,3.1-7.2,8-7.2c4.9,0,8,3.2,8,7.2c0,4.9-3.3,7.7-8,7.7C498.2,67.9,494.9,65.2,494.9,60.2z
		 M508.8,60.5c0-2.5-1.7-5.6-5.9-5.6c-4.2,0-5.9,3-5.9,5.6c0,3.3,2.2,5.6,5.9,5.6C506.6,66.1,508.8,63.9,508.8,60.5z"/>
	<path class="st1" d="M513.8,53.5h2.2v2.9c1.2-1.4,3-3.3,5.8-3.3c0.5,0,0.9,0,1.3,0.1v2.2c-0.3,0-0.8-0.2-1.7-0.2
		c-3.1,0-5.3,3.5-5.4,4v8.4h-2.2L513.8,53.5L513.8,53.5z"/>
	<path class="st1" d="M525.6,48.1h2.2v12.4l8.9-6.9h3.3l-6.5,5.1l7.4,8.9h-2.7l-6.3-7.7l-4,3.1v4.6h-2.2V48.1z"/>
</g>
<g>
	<g>
		<path class="st2" d="M0.2,26.3c0,6.2,2.2,11.8,5.8,16.3V10C2.3,14.4,0.2,20.1,0.2,26.3z"/>
		<path class="st2" d="M51.8,29.1c0.1-0.9,0.2-1.9,0.2-2.9C51.9,12.4,41,1.1,27.3,0.4v5.3C31.8,14.1,39.2,23,51.8,29.1z"/>
		<path class="st2" d="M42.9,44.6c0.5,0,0.9,0,1.4,0c0.3-0.3,0.5-0.5,0.8-0.8c-6.2-3.1-12.1-7.1-17.7-11.9v16
			C32.1,45.8,37.3,44.6,42.9,44.6z"/>
		<path class="st2" d="M27.3,12.7v14.5c6.2,5.7,12.9,10.3,19.9,13.8c1.7-2.5,3-5.3,3.8-8.2c-2.5-1.2-4.9-2.5-7.1-3.9
			C37.3,24.6,31.7,19.2,27.3,12.7z"/>
		<path class="st2" d="M10,64.1c3.4-5.7,8.1-10.5,13.7-13.9v-22c-0.7-0.7-1.4-1.3-2.1-2c-4.8-4.9-8.7-9.8-11.6-14V64.1z"/>
		<path class="st2" d="M16.4,3.6c-2.5,0-4.7,1.4-5.9,3.4c2.9,4.5,7.1,10.3,12.8,16.1V10.5C23.2,6.7,20.1,3.6,16.4,3.6z"/>
	</g>
</g>
<rect x="-34.4" y="-37.6" class="st3" width="612" height="144"/>
</svg>
